<?xml version="1.0" encoding="iso-8859-1"?>
<!-- Uploaded to: SVG Repo, www.svgrepo.com, Generator: SVG Repo Mixer Tools -->
<svg version="1.1" id="Layer_1" xmlns="http://www.w3.org/2000/svg" xmlns:xlink="http://www.w3.org/1999/xlink" 
	 viewBox="0 0 512 512" xml:space="preserve">
<path style="fill:#F00000;" d="M256,0C114.616,0,0,114.616,0,256s114.616,256,256,256s256-114.616,256-256S397.384,0,256,0z"/>
<path d="M320.968,424H191.032c-23.096,0-42-18.896-42-42V130c0-23.096,18.904-42,42-42h129.936c23.104,0,42,18.904,42,42v252
	C362.968,405.104,344.072,424,320.968,424z"/>
<g>
	<rect x="164.12" y="127.648" style="fill:#FFFFFF;" width="183.752" height="247.352"/>
	<circle style="fill:#FFFFFF;" cx="256" cy="107.8" r="7.872"/>
	<path style="fill:#FFFFFF;" d="M273.808,408.432H238.2c-4.92,0-8.904-3.984-8.904-8.904s3.984-8.904,8.904-8.904h35.608
		c4.92,0,8.904,3.984,8.904,8.904S278.72,408.432,273.808,408.432z"/>
</g>
<g>
	<rect x="187.232" y="316.512" style="fill:#F00000;" width="137.528" height="8"/>
	<rect x="202.496" y="334.16" style="fill:#F00000;" width="107.016" height="8"/>
	<rect x="192.96" y="161.88" style="fill:#F00000;" width="126" height="126"/>
</g>
<path d="M278.76,203.88h-5.904v-13.328c0-1.632-1.32-2.952-2.952-2.952h-27.8c-1.632,0-2.952,1.32-2.952,2.952v13.328h-5.904
	v-13.328c0-4.88,3.976-8.856,8.856-8.856h27.8c4.88,0,8.856,3.976,8.856,8.856V203.88z"/>
<path style="fill:#FFFFFF;" d="M222.032,200.424l-13.272,64.08h94.472l-13.272-64.08
	C289.96,200.424,222.032,200.424,222.032,200.424z"/>
<path d="M241.728,223.056c-2.848,0-5.152-2.312-5.152-5.16s2.304-5.16,5.152-5.16s5.152,2.312,5.152,5.16
	C246.888,220.744,244.576,223.056,241.728,223.056z M270.272,223.056c-2.848,0-5.152-2.312-5.152-5.16s2.304-5.16,5.152-5.16
	c2.848,0,5.152,2.312,5.152,5.16S273.112,223.056,270.272,223.056z"/>
</svg>